<?xml version="1.0" encoding="UTF-8" standalone="no"?>
<svg
   viewBox="0 0 720 720"
   version="1.1"
   id="svg35"
   sodipodi:docname="cathartic dark.svg"
   inkscape:version="1.1.2 (0a00cf5339, 2022-02-04)"
   xmlns:inkscape="http://www.inkscape.org/namespaces/inkscape"
   xmlns:sodipodi="http://sodipodi.sourceforge.net/DTD/sodipodi-0.dtd"
   xmlns="http://www.w3.org/2000/svg"
   xmlns:svg="http://www.w3.org/2000/svg">
  <sodipodi:namedview
     id="namedview37"
     pagecolor="#505050"
     bordercolor="#ffffff"
     borderopacity="1"
     inkscape:pageshadow="0"
     inkscape:pageopacity="0"
     inkscape:pagecheckerboard="1"
     showgrid="false"
     inkscape:zoom="1.1902778"
     inkscape:cx="360"
     inkscape:cy="360.42007"
     inkscape:window-width="1366"
     inkscape:window-height="713"
     inkscape:window-x="0"
     inkscape:window-y="0"
     inkscape:window-maximized="1"
     inkscape:current-layer="svg35" />
  <defs
     id="defs4">
    <style
       id="style2">.cls-1{fill:#4d4d4d;}.cls-2{fill:gray;}.cls-3{fill:#b3b3b3;}.cls-4{fill:#fff;}.cls-5{fill:#e6e6e6;}.cls-6{fill:#999;}</style>
  </defs>
  <rect
     class="cls-1"
     x="208"
     y="235"
     width="60"
     height="235"
     id="rect6"
     style="fill:#5e5c64"
     inkscape:export-filename="/home/waimus/Documents/sources/project-askalonia/src/ui/logos/cathartic_dark.png"
     inkscape:export-xdpi="60.299999"
     inkscape:export-ydpi="60.299999" />
  <rect
     class="cls-2"
     x="208"
     y="314"
     width="60"
     height="77"
     id="rect8"
     style="fill:#3d3846"
     inkscape:export-filename="/home/waimus/Documents/sources/project-askalonia/src/ui/logos/cathartic_dark.png"
     inkscape:export-xdpi="60.299999"
     inkscape:export-ydpi="60.299999" />
  <rect
     class="cls-3"
     x="208"
     y="391"
     width="60"
     height="79"
     id="rect10"
     style="fill:#241f31"
     inkscape:export-filename="/home/waimus/Documents/sources/project-askalonia/src/ui/logos/cathartic_dark.png"
     inkscape:export-xdpi="60.299999"
     inkscape:export-ydpi="60.299999" />
  <path
     class="cls-4"
     d="m 323.3,288.45 a 25.47,25.47 0 0 1 -2.75,7.6 21.47,21.47 0 0 1 -11.95,10 26.89,26.89 0 0 1 -8.9,1.4 28.52,28.52 0 0 1 -9.85,-1.7 23.31,23.31 0 0 1 -13.7,-12.9 26.71,26.71 0 0 1 -2,-10.8 v -1.2 a 27.19,27.19 0 0 1 2,-10.8 23.92,23.92 0 0 1 5.55,-8.1 24.76,24.76 0 0 1 8.15,-5.1 27,27 0 0 1 9.85,-1.8 26.28,26.28 0 0 1 8.7,1.4 22.29,22.29 0 0 1 7.05,3.95 21.48,21.48 0 0 1 5,6.05 23.76,23.76 0 0 1 2.65,7.6 l -7.8,1.8 a 16.1,16.1 0 0 0 -1.45,-5.05 14.23,14.23 0 0 0 -3.1,-4.3 14.49,14.49 0 0 0 -4.75,-2.95 17.77,17.77 0 0 0 -6.5,-1.1 17,17 0 0 0 -6.75,1.35 17.21,17.21 0 0 0 -5.55,3.8 17.39,17.39 0 0 0 -3.75,5.85 19.87,19.87 0 0 0 -1.35,7.4 v 1.2 a 20,20 0 0 0 1.35,7.55 16,16 0 0 0 3.75,5.65 16.91,16.91 0 0 0 5.6,3.55 18.84,18.84 0 0 0 6.9,1.25 16.55,16.55 0 0 0 6.45,-1.15 15.52,15.52 0 0 0 4.7,-3 14.39,14.39 0 0 0 3.1,-4.25 17.8,17.8 0 0 0 1.55,-5 z"
     id="path12"
     style="fill:#241f31"
     inkscape:export-filename="/home/waimus/Documents/sources/project-askalonia/src/ui/logos/cathartic_dark.png"
     inkscape:export-xdpi="60.299999"
     inkscape:export-ydpi="60.299999" />
  <path
     class="cls-5"
     d="m 374.1,297.65 h -1.2 a 16.3,16.3 0 0 1 -6.65,7.4 17.94,17.94 0 0 1 -8.95,2.4 24.66,24.66 0 0 1 -9.1,-1.65 20.58,20.58 0 0 1 -7.35,-4.9 23.22,23.22 0 0 1 -5,-7.95 30.37,30.37 0 0 1 -1.8,-10.9 v -1.6 a 30,30 0 0 1 1.8,-10.8 23.22,23.22 0 0 1 5,-7.95 21.11,21.11 0 0 1 7.35,-4.95 23.57,23.57 0 0 1 8.9,-1.7 19.1,19.1 0 0 1 9.25,2.25 15.79,15.79 0 0 1 6.55,6.95 h 1.2 v -7.8 h 7.8 v 39.4 q 0,3 2.7,3 h 2.5 v 7.2 h -5.3 a 7.4,7.4 0 0 1 -5.55,-2.2 7.69,7.69 0 0 1 -2.15,-5.6 z m -16,2.4 a 15.78,15.78 0 0 0 6.45,-1.3 14.29,14.29 0 0 0 5.05,-3.7 17.71,17.71 0 0 0 3.3,-5.75 22,22 0 0 0 1.2,-7.45 v -1.2 a 21.63,21.63 0 0 0 -1.2,-7.35 17.29,17.29 0 0 0 -3.35,-5.75 15.28,15.28 0 0 0 -5.1,-3.75 15.08,15.08 0 0 0 -6.35,-1.35 15.42,15.42 0 0 0 -6.4,1.3 15.21,15.21 0 0 0 -5.05,3.65 16.76,16.76 0 0 0 -3.35,5.7 21.63,21.63 0 0 0 -1.2,7.35 v 1.6 q 0,8.51 4.45,13.25 a 15.1,15.1 0 0 0 11.55,4.75 z"
     id="path14"
     style="fill:#241f31"
     inkscape:export-filename="/home/waimus/Documents/sources/project-askalonia/src/ui/logos/cathartic_dark.png"
     inkscape:export-xdpi="60.299999"
     inkscape:export-ydpi="60.299999" />
  <path
     class="cls-5"
     d="m 397.6,256.45 h 15.6 v -20.4 h 7.8 v 20.4 h 19.2 v 7.2 H 421 v 32.2 q 0,3 2.7,3 h 14.1 v 7.2 h -16.9 a 7.4,7.4 0 0 1 -5.55,-2.2 7.69,7.69 0 0 1 -2.15,-5.6 v -34.6 h -15.6 z"
     id="path16"
     style="fill:#241f31"
     inkscape:export-filename="/home/waimus/Documents/sources/project-askalonia/src/ui/logos/cathartic_dark.png"
     inkscape:export-xdpi="60.299999"
     inkscape:export-ydpi="60.299999" />
  <path
     class="cls-5"
     d="m 284.7,387.05 h -7.8 v -70 h 7.8 v 29.4 h 1.2 a 18.67,18.67 0 0 1 6.45,-7.6 17.71,17.71 0 0 1 10.15,-2.8 17.25,17.25 0 0 1 13.15,5.35 q 5.06,5.36 5.05,16.05 v 29.6 h -7.8 v -28 q 0,-7.8 -3.5,-11.7 a 12.12,12.12 0 0 0 -9.5,-3.9 q -7.09,0 -11.15,4.85 -4.06,4.85 -4.05,12.95 z"
     id="path18"
     style="fill:#5e5c64"
     inkscape:export-filename="/home/waimus/Documents/sources/project-askalonia/src/ui/logos/cathartic_dark.png"
     inkscape:export-xdpi="60.299999"
     inkscape:export-ydpi="60.299999" />
  <path
     class="cls-3"
     d="m 374.1,378.65 h -1.2 a 16.3,16.3 0 0 1 -6.65,7.4 17.94,17.94 0 0 1 -8.95,2.4 24.66,24.66 0 0 1 -9.1,-1.65 20.58,20.58 0 0 1 -7.35,-4.9 23.22,23.22 0 0 1 -5,-7.95 30.37,30.37 0 0 1 -1.8,-10.9 v -1.6 a 30,30 0 0 1 1.8,-10.8 23.22,23.22 0 0 1 5,-7.95 21.11,21.11 0 0 1 7.35,-4.95 23.57,23.57 0 0 1 8.9,-1.7 19.1,19.1 0 0 1 9.25,2.25 15.79,15.79 0 0 1 6.55,6.95 h 1.2 v -7.8 h 7.8 v 39.4 q 0,3 2.7,3 h 2.5 v 7.2 h -5.3 a 7.4,7.4 0 0 1 -5.55,-2.2 7.69,7.69 0 0 1 -2.15,-5.6 z m -16,2.4 a 15.78,15.78 0 0 0 6.45,-1.3 14.29,14.29 0 0 0 5.05,-3.7 17.71,17.71 0 0 0 3.3,-5.75 22,22 0 0 0 1.2,-7.45 v -1.2 a 21.63,21.63 0 0 0 -1.2,-7.35 17.29,17.29 0 0 0 -3.35,-5.75 15.28,15.28 0 0 0 -5.1,-3.75 15.08,15.08 0 0 0 -6.35,-1.35 15.42,15.42 0 0 0 -6.4,1.3 15.21,15.21 0 0 0 -5.05,3.65 16.76,16.76 0 0 0 -3.35,5.7 21.63,21.63 0 0 0 -1.2,7.35 v 1.6 q 0,8.51 4.45,13.25 a 15.1,15.1 0 0 0 11.55,4.75 z"
     id="path20"
     style="fill:#5e5c64"
     inkscape:export-filename="/home/waimus/Documents/sources/project-askalonia/src/ui/logos/cathartic_dark.png"
     inkscape:export-xdpi="60.299999"
     inkscape:export-ydpi="60.299999" />
  <path
     class="cls-3"
     d="m 396.5,337.45 h 18 v 6.6 h 1.2 a 12.84,12.84 0 0 1 5.4,-6.05 16.15,16.15 0 0 1 8,-1.95 15.82,15.82 0 0 1 12.1,4.9 q 4.6,4.91 4.9,14.3 l -8.2,1.2 q 0,-6.9 -3.3,-9.95 a 11.51,11.51 0 0 0 -8.1,-3.05 11.21,11.21 0 0 0 -5.35,1.2 10.8,10.8 0 0 0 -3.75,3.3 14.34,14.34 0 0 0 -2.2,4.9 24.55,24.55 0 0 0 -0.7,6 v 21 h 12.6 v 7.2 h -31.8 v -7.2 h 11.4 v -35.2 h -10.2 z"
     id="path22"
     style="fill:#5e5c64"
     inkscape:export-filename="/home/waimus/Documents/sources/project-askalonia/src/ui/logos/cathartic_dark.png"
     inkscape:export-xdpi="60.299999"
     inkscape:export-ydpi="60.299999" />
  <path
     class="cls-5"
     d="m 275.2,418.45 h 15.6 v -20.4 h 7.8 v 20.4 h 19.2 v 7.2 h -19.2 v 32.2 q 0,3 2.7,3 h 14.1 v 7.2 h -16.9 a 7.4,7.4 0 0 1 -5.55,-2.2 7.69,7.69 0 0 1 -2.15,-5.6 v -34.6 h -15.6 z"
     id="path24"
     style="fill:#9a9996"
     inkscape:export-filename="/home/waimus/Documents/sources/project-askalonia/src/ui/logos/cathartic_dark.png"
     inkscape:export-xdpi="60.299999"
     inkscape:export-ydpi="60.299999" />
  <path
     class="cls-3"
     d="m 339.3,460.85 h 17.4 v -35.2 h -15.6 v -7.2 h 23.4 v 42.4 h 16.2 v 7.2 h -41.4 z m 14.2,-57.2 a 7,7 0 1 1 2.05,5 6.74,6.74 0 0 1 -2.05,-5 z"
     id="path26"
     style="fill:#9a9996"
     inkscape:export-filename="/home/waimus/Documents/sources/project-askalonia/src/ui/logos/cathartic_dark.png"
     inkscape:export-xdpi="60.299999"
     inkscape:export-ydpi="60.299999" />
  <path
     class="cls-6"
     d="m 445.7,450.45 a 25.47,25.47 0 0 1 -2.75,7.6 21.47,21.47 0 0 1 -11.95,10 26.89,26.89 0 0 1 -8.9,1.4 28.52,28.52 0 0 1 -9.85,-1.7 23.31,23.31 0 0 1 -13.7,-12.9 26.71,26.71 0 0 1 -2.05,-10.8 v -1.2 a 27.19,27.19 0 0 1 2.05,-10.8 23.92,23.92 0 0 1 5.55,-8.1 24.76,24.76 0 0 1 8.15,-5.1 27,27 0 0 1 9.85,-1.8 26.28,26.28 0 0 1 8.7,1.4 22.4,22.4 0 0 1 7.05,3.95 21.48,21.48 0 0 1 5,6.05 23.76,23.76 0 0 1 2.65,7.6 l -7.8,1.8 a 16.1,16.1 0 0 0 -1.45,-5.05 14.23,14.23 0 0 0 -3.1,-4.3 14.49,14.49 0 0 0 -4.75,-2.95 17.77,17.77 0 0 0 -6.5,-1.1 17,17 0 0 0 -6.75,1.35 17.21,17.21 0 0 0 -5.55,3.8 17.39,17.39 0 0 0 -3.75,5.85 19.87,19.87 0 0 0 -1.35,7.4 v 1.2 a 20,20 0 0 0 1.35,7.55 16,16 0 0 0 3.75,5.65 16.91,16.91 0 0 0 5.6,3.55 18.84,18.84 0 0 0 6.9,1.25 16.59,16.59 0 0 0 6.45,-1.15 15.52,15.52 0 0 0 4.7,-3 14.39,14.39 0 0 0 3.1,-4.25 17.8,17.8 0 0 0 1.55,-5 z"
     id="path28"
     style="fill:#9a9996"
     inkscape:export-filename="/home/waimus/Documents/sources/project-askalonia/src/ui/logos/cathartic_dark.png"
     inkscape:export-xdpi="60.299999"
     inkscape:export-ydpi="60.299999" />
  <path
     class="cls-6"
     d="m 459.1,472.85 h 46.6 v 7.2 h -46.6 z"
     id="path30"
     style="fill:#9a9996"
     inkscape:export-filename="/home/waimus/Documents/sources/project-askalonia/src/ui/logos/cathartic_dark.png"
     inkscape:export-xdpi="60.299999"
     inkscape:export-ydpi="60.299999" />
  <path
     class="cls-5"
     d="m 217.76,301.32 v -8.4 l 38.8,-13 v -1.2 l -38.8,-13 v -8.4 l 41.8,14.4 v 15.2 z"
     id="path32"
     style="fill:#deddda"
     inkscape:export-filename="/home/waimus/Documents/sources/project-askalonia/src/ui/logos/cathartic_dark.png"
     inkscape:export-xdpi="60.299999"
     inkscape:export-ydpi="60.299999" />
</svg>
